# xmcd
#
# Track frame offsets:
# 150
# 18113
# 33341
# 50101
# 65468
# 81591
# 98321
# 115339
# 132451
# 146848
# 162586
# 179246
# 191728
#
# Disc length: 2756 seconds
#
#
# Revision: 1
# Processed by: cddbd v1.5.1PL2 Copyright (c) Steve Scherf et al.
# Submitted via: FreeRIP 2.945 
#
DISCID=c10ac20d
DTITLE=Adelmario Coelho - Povo Brasileiro
DYEAR=2005
DGENRE=forro
TTITLE0=Povo Brasileiro
TTITLE1=Anjo Protetor
TTITLE2=Minha Maria
TTITLE3=Tangendo a Dor
TTITLE4=Orgulhosamente Nordestino
TTITLE5=Procurando por Você
TTITLE6=Tô indo embora
TTITLE7=Foi você
TTITLE8=Pegue a mala seu doutor
TTITLE9=Destino
TTITLE10=Cardápio do Vaqueiro
TTITLE11=Chuva miúda
TTITLE12=O donzelão
EXTD=
EXTT0=
EXTT1=
EXTT2=
EXTT3=
EXTT4=
EXTT5=
EXTT6=
EXTT7=
EXTT8=
EXTT9=
EXTT10=
EXTT11=
EXTT12=
PLAYORDER=
